<svg id="レイヤー_1" data-name="レイヤー 1" xmlns="http://www.w3.org/2000/svg" viewBox="0 0 184.1 60.3"><defs><style>.cls-1{fill:#fff;}</style></defs><title>logo_white</title><path class="cls-1" d="M26.4,27.8V39.9H5.8v3.9a.27.27,0,0,0,.3.3H26.3V50H3.8A3.8,3.8,0,0,1,0,46.2V27.8A3.8,3.8,0,0,1,3.8,24H22.6a3.86,3.86,0,0,1,3.8,3.8Zm-5.9,6.3V30.2a.27.27,0,0,0-.3-.3H6.1a.27.27,0,0,0-.3.3v3.9Zm37.7-6.3V50H52.3V30.2a.27.27,0,0,0-.3-.3H38a.27.27,0,0,0-.3.3V50H31.8V24H54.4A3.93,3.93,0,0,1,58.2,27.8ZM85.6,60.3H58.8V54.4H83.2a.32.32,0,0,0,.3-.3V50H66.8A3.8,3.8,0,0,1,63,46.2V27.8A3.8,3.8,0,0,1,66.8,24H85.6a3.8,3.8,0,0,1,3.8,3.8V56.5A3.8,3.8,0,0,1,85.6,60.3ZM83.3,44.1a.32.32,0,0,0,.3-.3V30.2a.27.27,0,0,0-.3-.3H69.2a.27.27,0,0,0-.3.3V43.8a.27.27,0,0,0,.3.3Zm37.9-16.3V50H98.6a3.8,3.8,0,0,1-3.8-3.8V34h20.5V30.1a.27.27,0,0,0-.3-.3H94.8V23.9h22.6A4.1,4.1,0,0,1,121.2,27.8ZM115.3,40H100.6v3.9a.27.27,0,0,0,.3.3h14.3l.1-4.2Zm33.3,20.3H121.8V54.4h24.4a.32.32,0,0,0,.3-.3V50H129.8a3.8,3.8,0,0,1-3.8-3.8V27.8a3.8,3.8,0,0,1,3.8-3.8h18.8a3.8,3.8,0,0,1,3.8,3.8V56.5A3.8,3.8,0,0,1,148.6,60.3Zm-2.3-16.2a.32.32,0,0,0,.3-.3V30.2a.27.27,0,0,0-.3-.3H132.2a.27.27,0,0,0-.3.3V43.8a.27.27,0,0,0,.3.3Zm37.8-16.3V39.9H163.6v3.9a.27.27,0,0,0,.3.3h20.2V50H161.5a3.8,3.8,0,0,1-3.8-3.8V27.8a3.8,3.8,0,0,1,3.8-3.8h18.8A3.8,3.8,0,0,1,184.1,27.8Zm-5.9,6.3V30.2a.27.27,0,0,0-.3-.3h-14a.27.27,0,0,0-.3.3v3.9Z"/><path class="cls-1" d="M54.9,2.6h9.6v2H60.8V9.8h4.7v2H54v-2h4.6V4.6H55l-.1-2Z"/><path class="cls-1" d="M70.9,1.6A19.45,19.45,0,0,1,75,3.4L73.9,5.3a21.17,21.17,0,0,0-4-1.9Zm-.6,9.3c4.6-1.4,7.8-4.1,9.4-8a22.63,22.63,0,0,0,2,1.3A17.12,17.12,0,0,1,72,12.7c0,.2-.1.3-.3.4Z"/><path class="cls-1" d="M96.8,3.7v2H94.1c0,.1-.2.2-.3.2-.5,2.9-1.7,5.6-4.5,7.3a9.06,9.06,0,0,0-1.9-1.3,8.15,8.15,0,0,0,4.1-6.2H88.8a16.38,16.38,0,0,1-2,2.6,17.38,17.38,0,0,0-1.9-1A12.74,12.74,0,0,0,88.5.8l2.6.5c0,.1-.2.2-.4.3-.2.5-.5,1.4-.8,2.2l6.9-.1ZM94.2.7c.5.5,1.2,1.4,1.6,1.9l-1,.7a13.93,13.93,0,0,0-1.5-1.9ZM96.4.1A14.62,14.62,0,0,1,98,2l-1,.7c-.3-.5-1.1-1.4-1.5-1.9Z"/><path class="cls-1" d="M101.3,5.7H113V7.8H101.9a2.19,2.19,0,0,1-.5.3Z"/><path class="cls-1" d="M118.4,4.6a15.94,15.94,0,0,1,3.5,1.3L121,7.7a16,16,0,0,0-3.5-1.4Zm.2,6.4c4.2-1.2,7.3-3.4,9.2-7.6a13.3,13.3,0,0,0,1.9,1.4,15.76,15.76,0,0,1-9.3,7.9.4.4,0,0,1-.2.4Zm1.5-9.8a23.17,23.17,0,0,1,3.5,1.4l-1.1,1.8A16,16,0,0,0,119,2.9Zm6.3-.5A14.62,14.62,0,0,1,128,2.6l-1,.7a13.93,13.93,0,0,0-1.5-1.9Zm2.2-.7a14.62,14.62,0,0,1,1.6,1.9l-1,.7c-.3-.5-1.1-1.4-1.5-1.9Z"/></svg>